<?xml version="1.0" encoding="utf-8"?>
<svg viewBox="0 0 2048 2048" xmlns="http://www.w3.org/2000/svg">
    <defs>
        <linearGradient id="gradient-0" gradientUnits="userSpaceOnUse" x1="1007.208" y1="282.842" x2="1007.208"
                        y2="691.006" spreadMethod="pad"
                        gradientTransform="matrix(-0.907492, 0.410532, -0.232203, -0.51329, 2486.988647, 431.919919)">
            <stop offset="0" style="stop-color: rgb(227, 195, 206);"/>
            <stop offset="1" style="stop-color: rgb(255, 255, 255);"/>
        </linearGradient>
    </defs>
    <ellipse cx="1024.306" cy="1023.494" rx="1021.057" ry="1021.057" style="fill: rgb(219, 25, 86);"/>
    <path d="M 198.242 1215.643 L 499.145 1899.146 C 845.202 2106.881 1190.222 2056.559 1400.084 1972.94 L 944.871 881.123 L 198.242 1215.643 Z"
          style="fill: rgb(157, 7, 59); stroke: rgba(0, 0, 0, 0);"/>
    <path d="M 765.077 683.219 L 729.633 663.742 C 729.633 663.742 807.357 547.698 922.321 534.635 C 1060.145 518.975 1134.594 578.042 1134.594 578.042 L 1100.584 631.347 C 1100.584 631.347 1033.278 569.766 931.224 586.409 C 837.709 601.659 765.077 683.219 765.077 683.219 Z"
          style="fill: rgb(157, 7, 59); stroke: rgba(0, 0, 0, 0);"/>
    <ellipse cx="565.594" cy="1035.043" rx="408.964" ry="408.964"
             style="stroke: rgb(255, 255, 255); fill: rgb(255, 255, 255);"/>
    <path d="M 462.413 804.551 C 470.602 799.692 483.009 795.117 499.618 790.845 C 516.226 786.448 532.96 784.259 549.817 784.259 C 573.903 784.259 595.211 787.765 613.725 794.761 C 632.238 801.757 644.164 812.74 649.506 827.694 C 658.175 852.615 667.539 881.685 677.631 914.92 C 687.725 948.155 697.8 982.441 707.894 1017.812 C 717.987 1053.29 727.884 1088.252 737.622 1122.663 C 747.235 1157.072 755.654 1187.512 762.9 1213.983 C 757.079 1220.747 748.356 1226.142 736.732 1230.182 C 725.215 1234.33 711.507 1236.412 695.611 1236.412 C 684.094 1236.412 674.374 1235.398 666.416 1233.386 C 658.46 1231.482 651.944 1228.634 646.835 1224.842 C 641.85 1220.925 637.756 1215.817 634.552 1209.532 C 631.473 1203.355 628.731 1196.181 626.363 1187.993 L 613.368 1138.15 L 482.706 1138.15 C 478.79 1152.622 474.927 1167.521 471.136 1182.83 C 467.219 1198.264 463.356 1213.218 459.565 1227.69 C 452.8 1230.057 445.68 1232.087 438.203 1233.743 C 430.726 1235.523 421.701 1236.412 411.145 1236.412 C 386.579 1236.412 368.421 1232.193 356.673 1223.774 C 344.799 1215.354 338.871 1203.659 338.871 1188.705 C 338.871 1181.94 339.886 1175.176 341.897 1168.411 C 343.802 1161.648 345.938 1153.69 348.306 1144.558 C 351.635 1131.616 356.316 1115.542 362.369 1096.316 C 368.421 1076.966 375.061 1056.139 382.306 1033.833 C 389.552 1011.404 397.26 988.386 405.448 964.763 C 413.513 941.267 421.167 919.015 428.412 898.008 C 435.657 877.128 442.297 858.49 448.35 842.113 C 454.402 825.735 459.084 813.221 462.413 804.551 M 549.106 897.653 C 542.341 917.822 534.74 940.323 526.32 965.12 C 517.899 989.917 510.298 1015.088 503.534 1040.597 L 593.075 1040.597 C 586.31 1014.608 579.493 989.206 572.603 964.408 C 565.608 939.611 559.199 917.359 553.378 897.653 L 549.106 897.653 Z"
          style="fill: rgb(157, 7, 59); white-space: pre;"/>
    <path d="M 1145.516 1231.969 L 1462.259 1945.852 C 1785.246 1791.267 1967.928 1509.266 2024.94 1226.665 L 1876.359 861.685 L 1145.516 1231.969 Z"
          style="fill: rgb(157, 7, 59); stroke: rgba(0, 0, 0, 0);"/>
    <path d="M 1094.109 682.606 L 1047.915 757.674 L 1224.035 757.674 L 1290.441 685.493 L 1094.109 682.606 Z"
          style="fill: rgb(157, 7, 59); stroke: rgba(0, 0, 0, 0);"/>
    <ellipse cx="1505.4" cy="1035.043" rx="408.964" ry="408.964"
             style="stroke: rgb(255, 255, 255); fill: rgb(255, 255, 255);"/>
    <path d="M 1462.109 1157.453 C 1468.961 1159.454 1477.637 1160.817 1488.137 1161.526 C 1498.76 1162.234 1508.905 1162.588 1518.59 1162.588 C 1537.837 1162.588 1553.825 1158.569 1566.574 1150.548 C 1579.322 1142.633 1585.697 1130.239 1585.697 1113.365 C 1585.697 1097.554 1580.384 1086.276 1569.761 1079.547 C 1559.138 1072.819 1543.025 1069.455 1521.424 1069.455 L 1462.109 1069.455 L 1462.109 1157.453 M 1462.109 981.28 L 1514.873 981.28 C 1535.641 981.28 1550.691 977.437 1560.023 969.77 C 1569.459 962.104 1574.187 950.772 1574.187 935.775 C 1574.187 922.796 1568.751 912.456 1557.898 904.79 C 1547.044 896.999 1530.807 893.103 1509.207 893.103 C 1501.894 893.103 1493.573 893.405 1484.241 893.989 C 1474.804 894.467 1467.42 895.175 1462.109 896.113 L 1462.109 981.28 M 1509.207 1259.262 C 1500.937 1259.262 1491.271 1259.032 1480.169 1258.554 C 1469.191 1258.077 1457.806 1257.137 1445.997 1255.722 C 1434.187 1254.305 1422.5 1252.481 1410.939 1250.232 C 1399.377 1248.107 1388.753 1245.098 1379.068 1241.203 C 1352.633 1231.163 1339.407 1213.634 1339.407 1188.615 L 1339.407 851.318 C 1339.407 841.172 1342.187 833.31 1347.728 827.768 C 1353.271 822.227 1360.831 817.8 1370.392 814.489 C 1386.805 808.7 1407.274 804.521 1431.832 801.919 C 1456.39 799.209 1481.639 797.845 1507.613 797.845 C 1569.229 797.845 1616.682 808.239 1649.969 829.008 C 1683.132 849.671 1699.723 881.648 1699.723 924.974 C 1699.723 946.576 1693.472 965.22 1680.954 980.925 C 1668.436 996.63 1651.615 1008.069 1630.492 1015.275 C 1654.572 1022.003 1674.632 1034.273 1690.693 1052.103 C 1706.857 1069.933 1714.949 1092.295 1714.949 1119.208 C 1714.949 1166.891 1697.244 1202.197 1661.832 1225.09 C 1626.42 1247.877 1575.551 1259.262 1509.207 1259.262 Z"
          style="fill: rgb(157, 7, 59); white-space: pre;"/>
    <path d="M 503.084 631.549 C 557.194 513.572 669.91 390.564 829.501 346.067 C 958.657 305.263 1124.762 331.172 1243.527 397.196 L 1315.857 288.701 L 1510.399 695.245 L 1056.466 692.751 L 1131.29 579.269 C 1070.875 544.907 985.372 535.633 915.548 545.598 C 830.944 563.795 789.954 597.38 735.163 663.729 L 503.084 631.549 Z"
          style="fill: url(#gradient-0); stroke: rgba(255, 255, 255, 0);"/>
</svg>
